{"glyphs":{":":{"x_min":0,"x_max":296,"ha":296,"o":"m 89 332 q 89 358 105 374 q 121 390 146 390 q 174 390 191 374 q 207 358 207 332 q 207 308 190 292 q 173 276 148 276 q 122 276 105 292 q 89 308 89 332 z m 89 45 q 89 71 105 87 q 121 103 146 103 q 174 103 191 87 q 207 72 207 45 q 207 21 190 4 q 173 -12 148 -12 q 123 -12 106 4 q 89 21 89 45 z"},"$":{"x_min":0,"x_max":500,"ha":500,"o":"m 199 17 q 209 16 216 16 q 222 15 228 15 q 240 15 252 16 q 265 18 280 20 l 280 269 q 259 274 239 280 q 219 286 199 294 z m 305 27 q 352 42 380 76 q 407 110 407 153 q 407 194 382 221 q 357 247 305 262 z m 174 591 q 139 578 120 550 q 100 522 100 484 q 100 454 119 431 q 138 408 174 393 z m 199 386 q 228 377 249 372 q 271 366 280 364 l 280 605 q 276 605 272 606 q 268 606 258 606 q 243 606 228 604 q 213 603 199 600 z m 174 -3 q 112 6 74 44 q 35 81 35 129 q 35 157 50 173 q 65 189 91 189 q 110 189 121 176 q 133 164 133 143 q 133 114 107 99 q 81 85 81 80 q 81 66 108 48 q 135 30 174 20 l 174 303 q 120 321 89 361 q 59 401 59 456 q 59 510 89 551 q 119 592 174 614 l 174 672 l 199 672 l 199 622 q 211 624 224 625 q 238 626 253 626 q 264 626 270 626 q 275 625 280 625 l 280 672 l 305 672 l 305 624 q 367 612 402 579 q 437 547 437 502 q 437 477 422 461 q 408 445 385 445 q 366 445 354 456 q 341 468 341 485 q 341 509 366 524 q 391 539 391 545 q 391 559 365 577 q 340 595 305 600 l 305 357 q 377 336 413 295 q 449 253 449 190 q 449 119 413 71 q 376 24 305 2 l 305 -94 l 280 -94 l 280 -3 q 270 -5 258 -6 q 245 -7 229 -7 q 217 -7 210 -7 q 204 -6 199 -6 l 199 -94 l 174 -94 z"},"?":{"x_min":0,"x_max":440,"ha":440,"o":"m 125 40 q 125 66 140 82 q 155 97 179 97 q 207 97 223 82 q 239 66 239 40 q 239 15 222 0 q 206 -16 179 -16 q 155 -16 140 0 q 125 16 125 40 z m 159 190 q 158 204 157 218 q 156 232 156 247 q 156 300 169 333 q 183 366 216 397 q 226 406 245 423 q 324 491 324 542 q 324 587 290 618 q 256 648 204 648 q 165 648 131 627 q 98 607 98 588 q 98 579 113 577 q 122 575 127 573 q 144 567 152 557 q 160 547 160 533 q 160 514 148 503 q 136 491 117 491 q 92 491 77 507 q 63 523 63 551 q 63 602 104 635 q 145 669 207 669 q 278 669 325 623 q 372 576 372 506 q 372 454 345 411 q 318 368 253 320 l 253 320 q 183 268 183 210 q 183 205 183 200 q 184 195 184 190 z"},"<":{"x_min":0,"x_max":833,"ha":833,"o":"m 704 559 l 704 497 l 216 298 l 704 100 l 704 37 l 129 273 l 129 323 z"},"'":{"x_min":0,"x_max":170,"ha":170,"o":"m 93 422 l 77 422 l 45 645 q 44 649 44 653 q 44 657 44 664 q 44 688 54 701 q 65 714 85 714 q 105 714 116 701 q 127 688 127 665 q 127 661 125 648 q 125 646 125 645 z"},"=":{"x_min":0,"x_max":833,"ha":833,"o":"m 124 233 l 709 233 l 709 176 l 124 176 z m 124 420 l 709 420 l 709 363 l 124 363 z"},"a":{"x_min":0,"x_max":439,"ha":439,"o":"m 281 200 q 197 200 153 175 q 109 150 109 102 q 109 68 129 47 q 150 27 184 27 q 227 27 254 49 q 281 71 281 106 z m 283 53 q 264 23 226 6 q 188 -12 143 -12 q 92 -12 63 12 q 33 37 33 77 q 33 144 99 183 q 165 221 281 222 l 281 316 q 281 345 261 358 q 242 372 202 372 q 170 372 146 361 q 122 350 122 338 q 122 336 136 323 q 150 309 150 292 q 150 273 139 262 q 127 250 110 250 q 90 250 79 263 q 68 275 68 297 q 68 337 112 364 q 156 391 225 391 q 298 391 328 368 q 358 345 358 285 l 358 67 q 358 44 362 37 q 367 30 378 30 q 390 30 400 40 q 410 50 413 65 l 429 65 q 426 31 404 10 q 381 -11 347 -11 q 318 -11 302 5 q 286 21 283 53 z"},"L":{"x_min":0,"x_max":548,"ha":548,"o":"m 31 0 l 31 25 l 113 25 l 113 632 l 34 632 l 34 657 l 303 657 l 303 632 l 213 632 l 213 25 l 348 25 q 422 25 458 59 q 494 93 516 185 l 535 185 l 524 0 z"},"3":{"x_min":0,"x_max":500,"ha":500,"o":"m 266 342 q 351 328 398 285 q 445 242 445 180 q 445 98 376 43 q 307 -12 201 -12 q 125 -12 76 20 q 27 53 27 100 q 27 131 44 151 q 61 170 87 170 q 110 170 123 157 q 135 144 135 119 q 135 105 129 95 q 124 84 112 78 q 107 76 98 73 q 82 69 82 61 q 82 43 117 26 q 153 9 197 9 q 267 9 305 51 q 343 94 343 171 q 343 250 304 287 q 266 325 187 325 q 170 325 150 322 q 129 319 125 319 q 116 319 111 324 q 105 329 105 337 q 105 344 110 348 q 116 352 124 352 q 127 352 142 350 q 158 348 169 348 q 246 348 278 382 q 310 416 310 497 q 310 559 285 586 q 260 614 203 614 q 172 614 148 603 q 123 591 123 580 q 123 579 141 563 q 159 546 159 526 q 159 505 146 493 q 134 481 113 481 q 92 481 79 495 q 66 508 66 531 q 66 575 110 605 q 154 635 222 635 q 303 635 356 594 q 409 552 409 489 q 409 440 374 404 q 339 368 266 342 z"},";":{"x_min":0,"x_max":296,"ha":296,"o":"m 84 334 q 84 360 100 375 q 115 391 141 391 q 169 391 186 376 q 202 360 202 334 q 202 310 186 293 q 169 277 144 277 q 118 277 101 293 q 84 310 84 334 z m 94 -140 q 139 -106 165 -69 q 190 -32 190 -2 q 190 12 186 20 q 183 28 176 28 q 174 28 161 10 q 147 -8 122 -8 q 101 -8 88 6 q 74 19 74 41 q 74 69 93 86 q 111 103 142 103 q 177 103 200 78 q 223 53 223 14 q 223 -32 192 -77 q 161 -123 105 -158 z"},"J":{"x_min":0,"x_max":385,"ha":385,"o":"m 174 632 l 100 632 l 100 657 l 348 657 l 348 632 l 274 632 l 274 119 q 274 16 233 -35 q 192 -87 111 -87 q 62 -87 32 -62 q 1 -37 1 2 q 1 27 16 42 q 31 58 56 58 q 77 58 92 43 q 107 27 107 6 q 107 -8 98 -24 q 89 -40 89 -43 q 89 -52 96 -56 q 103 -61 116 -61 q 145 -61 159 -41 q 174 -21 174 19 z"},"V":{"x_min":0,"x_max":618,"ha":618,"o":"m 303 -16 l 85 632 l 12 632 l 12 657 l 263 657 l 263 632 l 186 632 l 350 148 l 511 632 l 421 632 l 421 657 l 609 657 l 609 632 l 540 632 l 325 -16 z"},"\"":{"x_min":0,"x_max":331,"ha":331,"o":"m 253 422 l 238 422 l 206 645 q 206 646 206 648 q 204 659 204 664 q 204 688 215 701 q 226 714 246 714 q 266 714 276 701 q 287 688 287 665 q 287 658 287 654 q 287 649 286 645 z m 93 422 l 77 422 l 46 645 q 45 653 44 658 q 44 662 44 665 q 44 688 55 701 q 65 714 85 714 q 105 714 116 701 q 127 688 127 665 q 127 661 125 648 q 125 646 125 645 z"},"7":{"x_min":0,"x_max":500,"ha":500,"o":"m 46 468 l 93 620 l 459 620 l 459 603 q 371 448 323 330 q 274 211 274 152 q 274 129 285 91 q 297 53 297 35 q 297 12 283 -1 q 269 -14 243 -14 q 218 -14 202 5 q 186 24 186 54 q 186 105 237 224 q 288 343 396 544 l 141 544 q 115 544 103 536 q 91 528 83 506 l 69 468 z"},"S":{"x_min":0,"x_max":491,"ha":491,"o":"m 56 -3 l 39 -3 l 39 170 l 58 170 q 82 97 132 54 q 183 12 246 12 q 317 12 365 57 q 414 101 414 165 q 414 240 267 287 q 255 290 249 292 q 123 332 82 374 q 40 417 40 489 q 40 570 93 621 q 146 672 232 672 q 295 672 351 639 q 361 633 363 633 q 366 633 368 635 q 370 636 372 638 l 391 659 l 412 659 l 412 509 l 394 509 q 370 580 327 615 q 284 650 221 650 q 165 650 126 616 q 87 582 87 533 q 87 493 117 467 q 146 441 214 423 q 224 420 244 415 q 357 385 394 357 q 426 332 443 295 q 460 258 460 211 q 460 109 400 48 q 339 -12 237 -12 q 165 -12 105 27 q 96 33 94 33 q 93 33 91 32 q 88 30 86 28 z"},"}":{"x_min":0,"x_max":500,"ha":500,"o":"m 87 740 l 92 740 q 197 740 237 704 q 277 668 277 571 l 277 467 q 277 390 305 361 q 333 333 414 325 l 414 296 q 334 290 306 260 q 277 231 277 154 l 277 50 q 277 -47 237 -83 q 197 -119 92 -119 l 87 -119 l 87 -94 q 157 -93 182 -68 q 207 -42 207 34 l 207 104 q 207 214 237 255 q 267 295 347 310 q 267 325 237 365 q 207 406 207 516 l 207 586 q 207 662 182 688 q 156 714 87 715 z"},"Z":{"x_min":0,"x_max":547,"ha":547,"o":"m 14 0 l 14 35 l 397 632 l 201 632 q 148 632 118 601 q 88 571 73 499 l 46 499 l 57 657 l 506 657 l 506 626 l 120 25 l 297 25 q 386 25 426 61 q 466 96 480 188 l 506 188 l 494 0 z"},"x":{"x_min":0,"x_max":441,"ha":441,"o":"m 13 0 l 13 23 l 70 23 l 186 184 l 69 361 l 15 361 l 15 382 l 202 382 l 202 361 l 153 361 l 230 245 l 312 361 l 258 361 l 258 382 l 401 382 l 401 361 l 343 361 l 245 223 l 379 23 l 423 23 l 423 0 l 239 0 l 239 23 l 293 23 l 201 161 l 101 23 l 158 23 l 158 0 z"},")":{"x_min":0,"x_max":312,"ha":312,"o":"m 26 669 q 127 581 180 466 q 233 351 233 219 q 233 87 180 -29 q 127 -145 26 -233 l 26 -211 q 95 -145 124 -49 q 154 47 154 216 q 154 388 124 486 q 95 583 26 647 z"},"&":{"x_min":0,"x_max":712,"ha":712,"o":"m 317 429 q 366 447 388 478 q 409 509 409 562 q 409 603 387 625 q 366 648 326 648 q 292 648 271 627 q 249 606 249 575 q 249 561 253 545 q 258 529 266 516 z m 245 377 q 186 359 157 328 q 128 296 128 250 q 128 215 142 174 q 157 132 181 96 q 206 60 234 43 q 262 26 296 26 q 325 26 356 39 q 388 52 423 79 z m 435 56 q 382 19 337 1 q 292 -16 247 -16 q 156 -16 99 38 q 41 93 41 178 q 41 253 93 313 q 145 373 234 400 l 205 449 q 192 471 186 494 q 179 517 179 537 q 179 595 222 632 q 265 669 333 669 q 398 669 439 636 q 480 603 480 552 q 480 507 442 471 q 404 436 330 411 l 490 151 q 530 192 552 250 q 574 309 577 380 l 491 380 l 491 403 l 684 403 l 684 380 l 602 380 q 597 299 573 237 q 548 175 503 129 l 568 25 l 649 25 l 649 0 l 469 0 z"},"_":{"x_min":0,"x_max":500,"ha":500,"o":"m 0 -178 l 500 -178 l 500 -236 l 0 -236 z"},"v":{"x_min":0,"x_max":437,"ha":437,"o":"m 199 -12 l 66 361 l 19 361 l 19 382 l 198 382 l 198 361 l 145 361 l 242 91 l 344 361 l 280 361 l 280 382 l 417 382 l 417 361 l 371 361 l 230 -12 z"},"O":{"x_min":0,"x_max":659,"ha":659,"o":"m 331 -16 q 265 -16 215 9 q 165 34 123 87 q 86 135 66 198 q 46 261 46 331 q 46 398 65 457 q 84 515 123 562 q 167 616 219 643 q 270 669 331 669 q 390 669 438 646 q 487 622 528 574 q 570 524 593 461 q 615 398 615 326 q 615 256 594 193 q 573 129 533 81 q 493 31 444 7 q 395 -16 331 -16 z m 331 646 q 236 646 198 568 q 159 491 159 286 q 159 146 202 78 q 244 9 331 9 q 417 9 460 78 q 502 147 502 288 q 502 494 464 570 q 426 646 331 646 z"},"(":{"x_min":0,"x_max":312,"ha":312,"o":"m 284 669 l 284 647 q 216 583 187 487 q 157 390 157 216 q 157 46 187 -50 q 216 -146 284 -211 l 284 -233 q 184 -145 131 -30 q 78 86 78 219 q 78 351 131 466 q 183 581 284 669 z"},"C":{"x_min":0,"x_max":601,"ha":601,"o":"m 517 176 l 536 176 l 536 0 l 515 0 l 484 32 q 454 8 414 -4 q 375 -16 325 -16 q 202 -16 124 77 q 46 171 46 318 q 46 389 66 451 q 86 513 125 562 q 164 612 221 640 q 277 669 337 669 q 377 669 412 657 q 447 645 482 618 l 515 649 l 530 649 l 530 483 l 509 483 q 488 563 443 605 q 398 647 333 647 q 242 647 200 565 q 159 484 159 299 q 159 211 167 163 q 175 115 194 84 q 214 50 249 31 q 283 11 323 11 q 395 11 444 53 q 493 95 517 176 z"},"W":{"x_min":0,"x_max":878,"ha":878,"o":"m 476 451 l 544 632 l 416 632 z m 336 130 l 420 360 l 327 632 l 176 632 z m 287 -16 l 82 632 l 19 632 l 19 657 l 619 657 l 619 632 l 570 632 l 493 426 l 594 127 l 758 632 l 679 632 l 679 657 l 860 657 l 860 632 l 787 632 l 575 -16 l 546 -16 l 434 313 l 313 -16 z"},"A":{"x_min":0,"x_max":623,"ha":623,"o":"m 198 265 l 370 265 l 287 529 z m 9 0 l 9 25 l 87 25 l 311 674 l 336 674 l 545 25 l 614 25 l 614 0 l 364 0 l 364 25 l 445 25 l 379 236 l 189 236 l 119 25 l 202 25 l 202 0 z"},"f":{"x_min":0,"x_max":274,"ha":274,"o":"m 6 0 l 6 23 l 82 23 l 82 358 l 7 358 l 7 381 l 82 381 l 82 431 q 82 549 122 608 q 161 667 239 667 q 279 667 304 651 q 329 635 329 609 q 329 592 319 581 q 310 571 294 571 q 275 571 264 582 q 253 592 253 610 q 253 614 254 620 q 255 626 255 628 q 255 636 248 640 q 242 644 230 644 q 192 644 176 602 q 159 560 159 460 l 159 381 l 237 381 l 237 358 l 159 358 l 159 23 l 234 23 l 234 0 z"},"Q":{"x_min":0,"x_max":659,"ha":659,"o":"m 555 -197 l 555 -219 l 530 -219 q 396 -219 335 -174 q 275 -128 275 -27 l 275 -12 q 176 6 112 102 q 48 197 48 326 q 48 400 69 461 q 89 521 131 570 q 172 618 222 643 q 272 667 328 667 q 388 667 438 643 q 489 619 531 570 q 573 521 595 459 q 616 397 616 325 q 616 196 551 101 q 486 6 386 -12 q 386 -17 385 -25 q 385 -33 385 -37 q 385 -123 424 -160 q 462 -197 551 -197 z m 332 644 q 238 644 199 567 q 160 490 160 293 q 160 149 203 78 q 246 8 333 8 q 418 8 460 76 q 503 145 503 280 q 503 495 465 569 q 428 644 332 644 z"},"w":{"x_min":0,"x_max":603,"ha":603,"o":"m 176 -12 l 62 361 l 8 361 l 8 382 l 197 382 l 197 361 l 139 361 l 219 102 l 311 382 l 341 382 l 436 103 l 515 361 l 447 361 l 447 382 l 593 382 l 593 361 l 542 361 l 426 -12 l 398 -12 l 300 272 l 207 -12 z"},"-":{"x_min":0,"x_max":329,"ha":329,"o":"m 43 158 l 43 227 l 286 227 l 286 158 z"},"E":{"x_min":0,"x_max":603,"ha":603,"o":"m 42 0 l 42 25 l 116 25 l 116 632 l 42 632 l 42 657 l 530 657 l 530 499 l 509 499 q 498 574 462 603 q 426 632 339 632 l 216 632 l 216 354 l 236 354 q 300 354 327 377 q 354 400 358 458 l 379 458 l 379 211 l 358 211 q 354 277 324 303 q 294 329 221 329 l 216 329 l 216 25 l 355 25 q 437 25 475 60 q 513 95 532 187 l 554 187 l 544 0 z"},"s":{"x_min":0,"x_max":384,"ha":384,"o":"m 43 0 l 43 129 l 67 129 q 82 74 118 43 q 154 13 204 13 q 247 13 273 35 q 300 57 300 93 q 300 133 203 152 q 184 156 173 158 q 98 174 71 199 q 44 224 44 272 q 44 325 80 358 q 115 391 172 391 q 204 391 229 383 q 253 374 268 358 l 288 384 l 302 384 l 302 273 l 281 273 q 271 321 243 346 q 215 371 172 371 q 132 371 108 352 q 83 332 83 301 q 83 261 197 240 q 216 237 226 235 q 284 225 312 196 q 341 167 341 120 q 341 59 302 23 q 262 -12 195 -12 q 164 -12 136 0 q 109 11 86 34 l 63 0 z"},">":{"x_min":0,"x_max":833,"ha":833,"o":"m 129 559 l 704 323 l 704 273 l 129 37 l 129 100 l 617 298 l 129 497 z"},"l":{"x_min":0,"x_max":274,"ha":274,"o":"m 22 0 l 22 23 l 95 23 l 95 637 l 20 637 l 20 657 q 60 658 98 660 q 137 663 175 667 l 175 23 l 250 23 l 250 0 z"},"8":{"x_min":0,"x_max":500,"ha":500,"o":"m 134 476 q 134 416 165 378 q 195 341 244 341 q 296 341 325 377 q 355 413 355 476 q 355 540 326 575 q 297 611 244 611 q 191 611 163 576 q 134 541 134 476 z m 244 310 q 185 310 151 268 q 116 225 116 152 q 116 84 149 48 q 182 12 244 12 q 306 12 339 49 q 372 86 372 155 q 372 228 338 269 q 304 310 244 310 z m 204 330 q 131 341 87 381 q 44 421 44 476 q 44 542 101 588 q 158 634 244 634 q 329 634 387 588 q 445 542 445 476 q 445 419 402 379 q 359 339 288 330 l 288 324 q 375 312 421 267 q 467 223 467 153 q 467 79 406 33 q 344 -13 244 -13 q 145 -13 83 33 q 21 79 21 152 q 21 223 70 269 q 118 314 204 324 z"},"\\":{"x_min":0,"x_max":272,"ha":272,"o":"m 250 -93 l 12 669 l 50 669 l 288 -93 z"},"e":{"x_min":0,"x_max":438,"ha":438,"o":"m 126 221 l 126 192 q 126 93 152 53 q 177 14 240 14 q 293 14 331 43 q 368 71 382 123 l 404 123 q 389 56 345 22 q 301 -11 228 -11 q 146 -11 89 44 q 33 100 33 180 q 33 269 91 330 q 148 391 231 391 q 309 391 354 347 q 398 304 406 221 z m 129 249 l 316 249 l 316 259 q 316 319 296 346 q 275 373 230 373 q 183 373 158 342 q 133 311 129 249 z"},"b":{"x_min":0,"x_max":494,"ha":494,"o":"m 157 239 l 157 128 q 157 78 190 45 q 223 12 271 12 q 325 12 348 52 q 370 92 370 195 q 370 294 348 332 q 326 369 271 369 q 223 369 190 332 q 157 294 157 239 z m 25 0 l 25 22 l 82 22 l 82 638 l 28 638 l 28 657 q 59 658 91 661 q 123 663 158 667 l 158 316 q 177 354 207 372 q 236 390 281 390 q 355 390 408 333 q 460 275 460 191 q 460 105 408 48 q 355 -10 278 -10 q 235 -10 203 9 q 171 27 153 64 l 153 -10 q 125 -6 93 -3 q 62 -1 25 0 z"},"%":{"x_min":0,"x_max":823,"ha":823,"o":"m 688 328 q 664 328 640 308 q 617 288 589 242 q 562 198 547 158 q 533 119 533 87 q 533 55 549 38 q 564 22 594 22 q 620 22 645 38 q 670 54 695 87 q 723 124 738 165 q 753 207 753 247 q 753 286 736 307 q 719 328 688 328 z m 457 109 q 457 151 472 192 q 488 233 517 268 q 553 312 594 335 q 634 359 674 359 q 723 359 750 329 q 776 299 776 243 q 776 200 759 154 q 742 107 712 69 q 681 30 646 11 q 610 -8 571 -8 q 520 -8 489 24 q 457 57 457 109 z m 274 598 q 253 596 235 583 q 217 569 197 542 q 162 491 142 443 q 122 394 122 359 q 122 328 137 310 q 152 293 179 293 q 209 293 236 310 q 262 327 287 362 q 314 400 328 441 q 342 481 342 521 q 342 531 342 536 q 341 542 341 546 q 313 555 298 567 q 283 579 274 598 z m 197 -27 l 546 576 q 510 554 476 543 q 442 532 410 532 q 395 532 385 533 q 375 535 365 538 l 365 531 q 365 419 304 341 q 243 263 160 263 q 107 263 76 295 q 46 328 46 384 q 46 425 63 466 q 81 508 114 546 q 150 587 189 608 q 228 630 266 630 q 301 630 325 613 q 349 597 359 565 q 370 560 382 558 q 394 555 408 555 q 456 555 503 579 q 549 602 592 648 l 629 648 l 239 -27 z"},"m":{"x_min":0,"x_max":713,"ha":713,"o":"m 29 0 l 29 23 l 81 23 l 81 361 l 28 361 l 28 382 q 61 382 94 384 q 127 387 159 391 l 159 295 q 182 344 215 367 q 248 391 292 391 q 341 391 369 366 q 397 340 400 294 q 419 342 453 366 q 487 391 533 391 q 587 391 614 361 q 641 330 641 270 l 641 23 l 691 23 l 691 0 l 507 0 l 507 23 l 564 23 l 564 305 q 564 334 551 349 q 539 364 513 364 q 468 364 433 318 q 398 272 398 211 l 398 23 l 448 23 l 448 0 l 267 0 l 267 23 l 322 23 l 322 305 q 322 336 309 350 q 297 364 268 364 q 224 364 190 311 q 156 258 156 184 l 156 23 l 207 23 l 207 0 z"},"#":{"x_min":0,"x_max":769,"ha":769,"o":"m 342 424 l 293 284 l 434 284 l 484 424 z m 380 711 l 445 711 l 363 481 l 503 481 l 585 711 l 649 711 l 568 481 l 718 481 l 698 424 l 547 424 l 498 284 l 660 284 l 639 228 l 478 228 l 397 -1 l 332 -1 l 413 228 l 273 228 l 192 -1 l 128 -1 l 209 228 l 51 228 l 72 284 l 229 284 l 278 424 l 108 424 l 129 481 l 299 481 z"},",":{"x_min":0,"x_max":250,"ha":250,"o":"m 78 -140 q 123 -106 148 -69 q 174 -32 174 -2 q 174 12 170 20 q 167 28 160 28 q 158 28 145 10 q 131 -8 106 -8 q 85 -8 72 6 q 58 19 58 41 q 58 69 77 86 q 95 103 126 103 q 162 103 184 78 q 207 53 207 14 q 207 -32 176 -77 q 145 -123 89 -158 z"},"n":{"x_min":0,"x_max":493,"ha":493,"o":"m 29 0 l 29 23 l 82 23 l 82 361 l 28 361 l 28 382 l 46 382 q 76 382 104 384 q 133 387 158 391 l 158 280 q 180 335 217 363 q 254 391 306 391 q 358 391 388 363 q 417 335 417 285 l 417 23 l 469 23 l 469 0 l 284 0 l 284 23 l 341 23 l 341 288 q 341 326 326 344 q 311 362 279 362 q 230 362 195 313 q 160 265 160 196 l 160 23 l 213 23 l 213 0 z"},"h":{"x_min":0,"x_max":494,"ha":494,"o":"m 26 0 l 26 23 l 78 23 l 78 637 l 27 637 l 27 657 q 59 658 91 660 q 123 663 156 667 l 156 283 q 178 337 215 365 q 252 392 303 392 q 355 392 385 364 q 414 335 414 285 l 414 23 l 466 23 l 466 0 l 281 0 l 281 23 l 338 23 l 338 288 q 338 326 323 344 q 308 362 276 362 q 228 362 192 312 q 156 263 156 196 l 156 23 l 208 23 l 208 0 z"},"z":{"x_min":0,"x_max":382,"ha":382,"o":"m 25 0 l 25 18 l 256 361 l 160 361 q 123 361 102 336 q 82 311 74 254 l 50 254 l 56 382 l 346 382 l 346 359 l 116 23 l 222 23 q 262 23 287 52 q 312 81 323 141 l 345 141 l 339 0 z"},"B":{"x_min":0,"x_max":605,"ha":605,"o":"m 212 333 l 212 25 l 299 25 q 381 25 411 57 q 441 88 441 175 q 441 261 407 297 q 373 333 290 333 z m 212 358 l 286 358 q 367 358 397 388 q 427 418 427 502 q 427 576 397 604 q 367 632 282 632 l 212 632 z m 42 0 l 42 25 l 114 25 l 114 632 l 42 632 l 42 657 l 294 657 q 408 657 468 618 q 528 579 528 505 q 528 443 486 403 q 444 363 367 350 l 367 346 q 451 332 500 287 q 550 242 550 180 q 550 94 482 47 q 415 0 290 0 z"},"K":{"x_min":0,"x_max":655,"ha":655,"o":"m 42 0 l 42 25 l 116 25 l 116 632 l 42 632 l 42 657 l 289 657 l 289 632 l 215 632 l 215 25 l 289 25 l 289 0 z m 396 0 l 396 25 l 475 25 l 226 344 l 226 354 l 489 632 l 406 632 l 406 657 l 603 657 l 603 632 l 529 632 l 300 389 l 589 26 l 644 26 l 644 0 z"},"R":{"x_min":0,"x_max":658,"ha":658,"o":"m 214 370 l 272 370 q 373 370 407 400 q 442 429 442 506 q 442 578 413 605 q 385 632 300 632 l 214 632 z m 39 25 l 117 25 l 117 632 l 43 632 l 43 657 l 321 657 q 431 657 490 619 q 550 581 550 512 q 550 444 496 402 q 443 360 350 356 l 350 348 q 422 335 467 298 q 512 260 520 206 q 524 178 525 124 q 526 70 534 50 q 541 32 552 24 q 564 16 584 16 q 596 16 608 19 q 621 22 635 29 l 635 4 q 610 -6 587 -12 q 564 -17 544 -17 q 481 -17 451 31 q 420 79 415 185 q 415 188 415 192 q 412 269 384 299 q 364 321 335 333 q 306 344 272 344 l 214 344 l 214 25 l 290 25 l 290 0 l 39 0 z"},"T":{"x_min":0,"x_max":548,"ha":548,"o":"m 140 0 l 140 25 l 223 25 l 223 632 q 217 632 210 633 q 203 633 190 633 q 121 633 86 597 q 52 562 33 467 l 11 467 l 20 657 l 527 657 l 534 467 l 512 467 q 499 557 462 595 q 426 633 351 633 q 338 633 333 633 q 327 632 322 632 l 322 25 l 403 25 l 403 0 z"},"P":{"x_min":0,"x_max":546,"ha":546,"o":"m 209 323 l 253 323 q 352 323 392 359 q 432 396 432 486 q 432 571 398 601 q 364 632 255 632 l 209 632 z m 39 0 l 39 25 l 113 25 l 113 632 l 39 632 l 39 657 l 267 657 q 403 657 470 615 q 536 573 536 487 q 536 394 463 345 q 390 297 250 297 l 209 297 l 209 25 l 287 25 l 287 0 z"},"|":{"x_min":0,"x_max":500,"ha":500,"o":"m 219 764 l 281 764 l 281 -236 l 219 -236 z"},"t":{"x_min":0,"x_max":273,"ha":273,"o":"m 76 69 l 76 361 l 20 361 l 20 382 l 76 382 l 76 503 q 81 502 86 502 q 92 502 102 502 q 117 502 129 503 q 141 504 151 506 l 151 382 l 240 382 l 240 361 l 151 361 l 151 78 q 151 44 159 34 q 167 23 189 23 q 203 23 216 32 q 229 41 243 59 l 259 47 q 236 15 212 1 q 188 -12 155 -12 q 114 -12 95 8 q 76 27 76 69 z"},"M":{"x_min":0,"x_max":767,"ha":767,"o":"m 44 0 l 44 25 l 116 25 l 116 632 l 44 632 l 44 657 l 242 657 l 381 171 l 529 657 l 722 657 l 722 632 l 645 632 l 645 25 l 722 25 l 722 0 l 477 0 l 477 25 l 551 25 l 551 623 l 547 623 l 357 0 l 332 0 l 155 623 l 147 623 l 147 25 l 221 25 l 221 0 z"},"g":{"x_min":0,"x_max":439,"ha":439,"o":"m 143 267 q 143 207 158 183 q 174 160 211 160 q 251 160 265 181 q 280 202 280 265 q 280 325 265 348 q 250 371 213 371 q 175 371 159 347 q 143 324 143 267 z m 139 60 l 291 60 q 356 60 387 31 q 419 1 419 -59 q 419 -138 365 -179 q 312 -219 205 -219 q 124 -219 76 -191 q 29 -163 29 -116 q 29 -80 59 -53 q 88 -27 149 -8 q 98 -4 67 16 q 37 36 37 67 q 37 102 63 123 q 89 144 140 151 q 100 172 82 198 q 64 224 64 261 q 64 318 105 354 q 147 391 213 391 q 251 391 281 378 q 311 366 331 341 q 346 369 360 380 q 374 391 395 391 q 411 391 422 381 q 433 371 433 356 q 433 340 426 332 q 419 323 407 323 q 392 323 382 336 q 372 349 369 349 q 362 349 355 340 q 347 330 347 321 q 347 320 353 301 q 358 281 358 261 q 358 229 340 199 q 321 170 290 155 q 261 141 203 138 q 187 138 178 137 q 124 132 98 119 q 72 106 72 84 q 72 70 84 65 q 97 60 139 60 z m 258 -6 l 191 -6 q 144 -26 120 -53 q 95 -81 95 -114 q 95 -152 128 -174 q 161 -195 222 -195 q 298 -195 342 -165 q 386 -135 386 -84 q 386 -42 358 -24 q 329 -6 258 -6 z"},"j":{"x_min":0,"x_max":264,"ha":264,"o":"m 85 586 q 85 606 100 621 q 114 635 135 635 q 155 635 170 620 q 185 606 185 586 q 185 565 170 551 q 156 536 135 536 q 114 536 100 551 q 85 565 85 586 z m 99 -69 l 99 361 l 33 361 l 33 382 q 69 382 105 384 q 141 387 175 391 l 175 -16 q 175 -104 130 -162 q 85 -219 20 -219 q -9 -219 -27 -205 q -45 -191 -45 -168 q -45 -151 -35 -142 q -26 -133 -8 -133 q 1 -133 10 -139 q 20 -145 28 -155 q 32 -161 37 -170 q 44 -185 56 -185 q 78 -185 89 -157 q 99 -128 99 -69 z"},"i":{"x_min":0,"x_max":275,"ha":275,"o":"m 89 586 q 89 606 104 621 q 118 635 139 635 q 160 635 174 620 q 189 606 189 586 q 189 565 174 551 q 160 536 139 536 q 118 536 104 551 q 89 565 89 586 z m 31 0 l 31 23 l 98 23 l 98 361 l 34 361 l 34 382 l 53 382 q 85 382 116 384 q 147 387 175 391 l 175 23 l 233 23 l 233 0 z"},"y":{"x_min":0,"x_max":439,"ha":439,"o":"m 207 2 l 60 361 l 13 361 l 13 382 l 204 382 l 204 361 l 141 361 l 247 106 l 345 361 l 281 361 l 281 382 l 421 382 l 421 361 l 371 361 l 192 -111 q 170 -168 147 -194 q 124 -219 93 -219 q 70 -219 54 -206 q 39 -192 39 -173 q 39 -156 50 -144 q 61 -133 78 -133 q 99 -133 111 -151 q 123 -169 127 -169 q 134 -169 144 -153 q 154 -138 166 -106 z"},"@":{"x_min":0,"x_max":986,"ha":986,"o":"m 581 164 q 551 112 513 87 q 476 61 430 61 q 369 61 332 106 q 295 151 295 225 q 295 278 319 331 q 343 383 386 425 q 418 456 457 474 q 495 491 532 491 q 575 491 602 467 q 629 443 640 396 l 666 484 l 736 484 l 653 186 q 653 185 652 184 q 644 155 644 133 q 644 110 656 96 q 669 83 690 83 q 707 83 729 92 q 750 100 770 115 q 830 159 861 228 q 893 297 893 382 q 893 450 869 505 q 844 560 794 604 q 750 643 688 664 q 627 685 558 685 q 467 685 391 656 q 316 628 257 571 q 193 509 161 427 q 128 346 128 247 q 128 162 156 98 q 184 35 244 -16 q 300 -63 372 -88 q 443 -112 528 -112 q 607 -112 683 -86 q 758 -61 827 -11 l 842 -29 q 770 -83 689 -110 q 608 -137 522 -137 q 431 -137 355 -115 q 279 -92 221 -47 q 147 8 109 87 q 71 166 71 262 q 71 362 113 448 q 155 535 235 601 q 299 655 377 682 q 455 709 545 709 q 714 709 815 618 q 916 526 916 374 q 916 297 888 229 q 859 161 808 114 q 780 88 748 75 q 715 61 682 61 q 635 61 609 87 q 584 112 581 164 z m 536 471 q 510 471 488 456 q 466 441 443 407 q 408 354 387 293 q 366 231 366 183 q 366 138 386 111 q 406 85 439 85 q 471 85 500 107 q 530 128 557 172 q 585 218 602 271 q 618 324 618 367 q 618 413 595 442 q 572 471 536 471 z"},".":{"x_min":0,"x_max":250,"ha":250,"o":"m 66 45 q 66 71 82 87 q 97 103 123 103 q 151 103 168 87 q 184 72 184 45 q 184 21 167 4 q 150 -12 125 -12 q 100 -12 83 4 q 66 21 66 45 z"},"p":{"x_min":0,"x_max":493,"ha":493,"o":"m 155 223 l 155 144 q 155 85 187 49 q 218 12 267 12 q 322 12 346 54 q 370 96 370 193 q 370 285 346 327 q 323 368 271 368 q 221 368 188 328 q 155 288 155 223 z m 78 -196 l 78 361 l 23 361 l 23 382 q 55 383 87 385 q 120 387 153 390 l 153 302 q 168 343 201 367 q 235 390 279 390 q 354 390 407 331 q 460 272 460 187 q 460 103 407 46 q 355 -11 279 -11 q 237 -11 205 7 q 173 25 154 60 l 154 -196 l 220 -196 l 220 -219 l 21 -219 l 21 -196 z"},"X":{"x_min":0,"x_max":659,"ha":659,"o":"m 20 0 l 20 25 l 104 25 l 284 314 l 94 632 l 24 632 l 24 657 l 278 657 l 278 632 l 207 632 l 344 402 l 487 632 l 406 632 l 406 657 l 602 657 l 602 632 l 519 632 l 359 376 l 570 25 l 635 25 l 635 0 l 377 0 l 377 25 l 457 25 l 299 288 l 139 25 l 224 25 l 224 0 z"},"*":{"x_min":0,"x_max":500,"ha":500,"o":"m 244 479 l 244 487 q 244 522 227 566 q 210 610 210 622 q 210 643 221 656 q 232 669 250 669 q 267 669 279 657 q 290 645 290 626 q 290 612 273 567 q 256 522 256 485 l 256 479 q 294 499 329 546 q 336 556 340 560 q 352 574 364 580 q 377 587 392 587 q 408 587 418 576 q 429 565 429 549 q 429 533 418 521 q 408 510 388 504 q 381 502 363 500 q 303 492 262 468 q 296 447 341 440 q 387 433 390 432 q 407 426 418 414 q 429 401 429 387 q 429 371 417 359 q 406 348 389 348 q 376 348 364 356 q 351 363 338 379 q 335 382 330 390 q 298 435 256 458 l 256 450 q 256 415 273 370 q 290 326 290 314 q 290 293 279 281 q 268 268 250 268 q 233 268 221 280 q 210 292 210 311 q 210 325 227 370 q 244 415 244 452 l 244 458 q 206 438 171 391 q 164 381 160 377 q 148 363 135 356 q 123 349 108 349 q 92 349 82 360 q 71 372 71 388 q 71 404 82 416 q 92 427 112 433 q 119 435 137 437 q 197 444 238 468 q 203 489 158 496 q 112 503 111 504 q 92 510 81 522 q 71 534 71 549 q 71 565 82 577 q 94 588 111 588 q 124 588 136 581 q 149 573 162 558 q 165 555 170 547 q 202 502 244 479 z"},"Y":{"x_min":0,"x_max":611,"ha":611,"o":"m 177 0 l 177 25 l 262 25 l 262 309 l 72 632 l 0 632 l 0 657 l 266 657 l 266 632 l 182 632 l 349 344 l 504 632 l 406 632 l 406 657 l 611 657 l 611 632 l 535 632 l 363 308 l 363 25 l 448 25 l 448 0 z"},"c":{"x_min":0,"x_max":438,"ha":438,"o":"m 374 120 l 398 120 q 382 57 338 23 q 293 -11 227 -11 q 143 -11 88 44 q 34 99 34 184 q 34 272 92 331 q 150 390 239 390 q 304 390 345 360 q 387 330 387 285 q 387 263 374 249 q 360 236 338 236 q 319 236 307 249 q 295 261 295 280 q 295 297 310 314 q 324 332 324 336 q 324 350 300 361 q 275 371 240 371 q 180 371 153 328 q 125 285 125 190 q 125 94 150 53 q 176 11 233 11 q 285 11 322 40 q 359 68 374 120 z"},"!":{"x_min":0,"x_max":296,"ha":296,"o":"m 137 198 q 134 385 98 561 q 92 591 92 597 q 92 632 106 651 q 121 669 149 669 q 177 669 192 650 q 207 632 207 597 q 207 591 201 561 q 164 385 161 198 z m 91 40 q 91 66 106 82 q 122 97 148 97 q 174 97 189 81 q 205 65 205 40 q 205 15 189 0 q 173 -16 146 -16 q 122 -16 106 0 q 91 16 91 40 z"},"/":{"x_min":0,"x_max":272,"ha":272,"o":"m -16 -93 l 222 669 l 259 669 l 22 -93 z"},"[":{"x_min":0,"x_max":312,"ha":312,"o":"m 96 -199 l 96 657 l 302 657 l 302 633 l 167 633 l 167 -175 l 302 -175 l 302 -199 z"},"6":{"x_min":0,"x_max":500,"ha":500,"o":"m 131 304 q 128 281 126 257 q 125 233 125 207 q 125 101 154 55 q 182 10 247 10 q 315 10 344 56 q 372 103 372 221 q 372 301 344 342 q 315 383 259 383 q 223 383 190 362 q 156 342 131 304 z m 133 339 q 160 372 195 388 q 231 405 273 405 q 354 405 414 345 q 473 285 473 202 q 473 108 409 46 q 344 -16 247 -16 q 147 -16 86 57 q 25 130 25 248 q 25 337 63 413 q 102 489 177 549 q 225 586 284 608 q 344 630 415 636 l 415 612 q 288 596 216 525 q 144 455 133 339 z"},"r":{"x_min":0,"x_max":329,"ha":329,"o":"m 20 0 l 20 23 l 86 23 l 86 361 l 22 361 l 22 382 q 61 382 96 384 q 132 387 163 391 l 163 293 q 188 341 217 365 q 246 388 280 388 q 308 388 322 375 q 337 362 337 337 q 337 318 325 307 q 314 296 295 296 q 278 296 265 308 q 253 320 253 337 q 253 341 254 346 q 255 352 255 353 q 255 357 254 358 q 253 360 251 360 q 224 360 195 313 q 165 266 165 217 l 165 23 l 238 23 l 238 0 z"},"2":{"x_min":0,"x_max":500,"ha":500,"o":"m 25 0 l 25 47 l 187 203 q 265 278 303 341 q 341 405 341 460 q 341 526 303 564 q 266 603 203 603 q 149 603 112 574 q 74 545 74 508 q 74 502 76 499 q 78 495 81 495 q 82 495 85 496 q 101 501 118 501 q 139 501 152 488 q 164 475 164 453 q 164 430 150 415 q 136 401 114 401 q 85 401 66 424 q 47 447 47 483 q 47 548 102 592 q 157 635 242 635 q 333 635 389 590 q 444 544 444 470 q 444 420 406 367 q 369 313 276 234 l 93 77 l 349 77 q 382 77 395 91 q 408 104 416 158 l 442 158 l 428 0 z"},"{":{"x_min":0,"x_max":500,"ha":500,"o":"m 413 740 l 413 715 q 344 714 318 688 q 293 662 293 586 l 293 516 q 293 406 263 365 q 233 325 153 310 q 233 295 263 255 q 293 214 293 104 l 293 34 q 293 -42 318 -68 q 343 -93 413 -94 l 413 -119 l 408 -119 q 302 -119 263 -83 q 223 -47 223 50 l 223 154 q 223 231 194 260 q 166 290 86 296 l 86 325 q 167 333 195 361 q 223 390 223 467 l 223 571 q 223 668 263 704 q 302 740 408 740 z"},"9":{"x_min":0,"x_max":500,"ha":500,"o":"m 362 316 q 365 338 366 368 q 367 398 367 443 q 367 528 337 568 q 308 609 246 609 q 178 609 149 564 q 119 520 119 416 q 119 324 147 281 q 175 237 234 237 q 270 237 304 258 q 338 279 362 316 z m 363 285 q 336 251 300 233 q 264 215 224 215 q 139 215 79 273 q 19 332 19 416 q 19 512 83 573 q 146 634 246 634 q 350 634 409 563 q 468 493 468 368 q 468 282 429 207 q 391 132 315 72 q 267 34 208 12 q 148 -10 77 -16 l 76 8 q 203 23 274 92 q 346 161 363 285 z"}," ":{"x_min":0,"x_max":250,"ha":250,"o":""},"I":{"x_min":0,"x_max":329,"ha":329,"o":"m 30 0 l 30 25 l 113 25 l 113 632 l 30 632 l 30 657 l 298 657 l 298 632 l 213 632 l 213 25 l 298 25 l 298 0 z"},"H":{"x_min":0,"x_max":713,"ha":713,"o":"m 41 0 l 41 25 l 115 25 l 115 632 l 41 632 l 41 657 l 289 657 l 289 632 l 215 632 l 215 354 l 498 354 l 498 632 l 424 632 l 424 657 l 672 657 l 672 632 l 598 632 l 598 25 l 672 25 l 672 0 l 424 0 l 424 25 l 498 25 l 498 326 l 215 326 l 215 25 l 289 25 l 289 0 z"},"4":{"x_min":0,"x_max":500,"ha":500,"o":"m 42 200 l 269 200 l 269 564 q 181 441 119 344 q 58 247 42 207 z m 196 0 l 196 25 l 266 25 l 266 171 l 20 171 l 20 225 q 68 316 133 416 q 199 515 291 637 l 354 637 l 354 200 l 443 200 l 443 274 l 465 274 l 465 101 l 443 101 l 443 171 l 353 171 l 353 25 l 425 25 l 425 0 z"},"~":{"x_min":0,"x_max":833,"ha":833,"o":"m 747 370 l 747 306 q 698 271 651 253 q 604 236 558 236 q 537 236 514 240 q 491 245 465 253 q 450 258 422 268 q 324 303 275 303 q 234 303 190 285 q 146 267 87 225 l 87 290 q 138 326 186 343 q 233 361 276 361 q 303 361 333 355 q 362 349 418 329 q 424 327 435 323 q 515 294 559 294 q 601 294 645 312 q 689 330 747 370 z"},"D":{"x_min":0,"x_max":658,"ha":658,"o":"m 218 632 l 218 25 l 289 25 q 339 25 377 36 q 415 46 439 67 q 474 97 489 147 q 503 197 503 331 q 503 449 490 500 q 478 551 448 581 q 421 607 382 620 q 342 632 280 632 z m 118 25 l 118 632 l 44 632 l 44 657 l 284 657 q 442 657 527 574 q 613 490 613 336 q 613 245 582 173 q 550 102 489 53 q 454 26 406 13 q 359 0 294 0 l 44 0 l 44 25 z"},"^":{"x_min":0,"x_max":1000,"ha":1000,"o":"m 456 714 l 543 714 l 797 438 l 752 438 l 499 651 l 245 438 l 201 438 z"},"0":{"x_min":0,"x_max":500,"ha":500,"o":"m 128 310 q 128 149 156 80 q 185 11 250 11 q 315 11 344 79 q 372 147 372 310 q 372 466 343 539 q 313 612 250 612 q 188 612 158 538 q 128 464 128 310 z m 26 310 q 26 453 90 543 q 153 634 250 634 q 347 634 411 543 q 474 453 474 310 q 474 167 410 77 q 346 -14 250 -14 q 207 -14 170 6 q 133 26 100 67 q 62 116 44 174 q 26 231 26 310 z"},"F":{"x_min":0,"x_max":547,"ha":547,"o":"m 42 0 l 42 25 l 116 25 l 116 632 l 42 632 l 42 657 l 531 657 l 531 482 l 510 482 q 503 566 467 599 q 430 632 339 632 l 216 632 l 216 349 l 225 349 q 290 349 318 373 q 347 396 351 453 l 372 453 l 372 208 l 351 208 q 346 269 319 296 q 292 323 236 323 q 232 323 226 323 q 220 322 216 322 l 216 25 l 294 25 l 294 0 z"},"`":{"x_min":0,"x_max":500,"ha":500,"o":"m 336 445 l 303 445 l 142 545 q 127 555 119 565 q 112 575 112 586 q 112 601 122 611 q 132 620 148 620 q 158 620 168 614 q 178 608 195 591 z"},"k":{"x_min":0,"x_max":493,"ha":493,"o":"m 164 219 l 334 360 l 268 360 l 268 382 l 432 382 l 432 360 l 370 360 l 234 246 l 423 23 l 463 23 l 463 0 l 274 0 l 274 23 l 325 23 z m 83 23 l 83 637 l 31 637 l 31 657 q 59 659 87 661 q 116 663 161 667 l 161 23 l 217 23 l 217 0 l 28 0 l 28 23 z"},"u":{"x_min":0,"x_max":493,"ha":493,"o":"m 78 361 l 21 361 l 21 382 l 43 382 q 78 382 104 384 q 129 386 150 391 l 150 101 q 150 51 165 36 q 179 21 219 21 q 267 21 299 60 q 332 98 332 157 l 332 361 l 274 361 l 274 382 l 291 382 q 320 382 350 384 q 380 387 409 391 l 409 23 l 462 23 l 462 0 l 441 0 q 408 0 382 -2 q 356 -4 334 -9 l 334 74 q 312 34 276 12 q 239 -10 193 -10 q 132 -10 105 16 q 78 42 78 101 z"},"]":{"x_min":0,"x_max":312,"ha":312,"o":"m 216 -199 l 10 -199 l 10 -175 l 146 -175 l 146 633 l 10 633 l 10 657 l 216 657 z"},"U":{"x_min":0,"x_max":656,"ha":656,"o":"m 116 166 l 116 632 l 39 632 l 39 657 l 287 657 l 287 632 l 211 632 l 211 172 q 211 96 247 56 q 282 16 350 16 q 429 16 470 65 q 511 114 511 209 l 511 632 l 436 632 l 436 657 l 616 657 l 616 632 l 541 632 l 541 206 q 541 93 487 38 q 433 -17 322 -17 q 226 -17 171 32 q 116 81 116 166 z"},"o":{"x_min":0,"x_max":438,"ha":438,"o":"m 29 190 q 29 275 84 333 q 140 391 220 391 q 302 391 356 334 q 410 277 410 191 q 410 106 354 48 q 298 -11 219 -11 q 137 -11 83 46 q 29 104 29 190 z m 121 190 q 121 82 143 45 q 165 8 219 8 q 273 8 295 47 q 318 86 318 189 q 318 298 296 334 q 274 370 220 370 q 166 370 143 332 q 121 294 121 190 z"},"N":{"x_min":0,"x_max":659,"ha":659,"o":"m 40 0 l 40 25 l 114 25 l 114 632 l 41 632 l 41 657 l 232 657 l 512 187 l 512 632 l 438 632 l 438 657 l 620 657 l 620 632 l 544 632 l 544 -16 l 518 -16 l 145 620 l 145 25 l 219 25 l 219 0 z"},"+":{"x_min":0,"x_max":833,"ha":833,"o":"m 388 596 l 446 596 l 446 327 l 709 327 l 709 270 l 446 270 l 446 0 l 388 0 l 388 270 l 124 270 l 124 327 l 388 327 z"},"G":{"x_min":0,"x_max":658,"ha":658,"o":"m 385 231 l 647 231 l 647 208 l 587 208 q 587 100 521 42 q 455 -16 332 -16 q 202 -16 123 75 q 45 167 45 320 q 45 392 67 455 q 89 519 132 569 q 174 619 227 644 q 279 669 340 669 q 386 669 427 655 q 469 642 503 615 l 539 650 l 553 650 l 553 483 l 532 483 q 514 560 465 602 q 416 645 345 645 q 248 645 203 566 q 158 487 158 317 q 158 151 198 80 q 238 9 329 9 q 409 9 443 50 q 478 90 478 185 l 478 208 l 385 208 z"},"q":{"x_min":0,"x_max":496,"ha":496,"o":"m 337 153 l 337 230 q 337 289 303 329 q 270 369 223 369 q 170 369 146 324 q 122 279 122 178 q 122 93 146 53 q 170 12 220 12 q 272 12 305 51 q 337 89 337 153 z m 334 -196 l 334 60 q 314 26 283 7 q 253 -11 216 -11 q 136 -11 85 44 q 33 99 33 185 q 33 273 86 332 q 139 390 216 390 q 258 390 290 369 q 321 348 335 310 l 335 390 q 372 386 406 384 q 439 382 473 382 l 473 361 l 414 361 l 414 -196 l 469 -196 l 469 -219 l 268 -219 l 268 -196 z"},"d":{"x_min":0,"x_max":496,"ha":496,"o":"m 338 117 l 338 251 q 338 298 303 333 q 268 368 221 368 q 167 368 145 328 q 122 288 122 192 q 122 91 146 51 q 169 10 224 10 q 268 10 303 43 q 338 77 338 117 z m 415 667 l 415 23 l 469 23 l 469 0 q 424 0 394 -2 q 363 -5 339 -10 l 339 61 q 319 26 286 7 q 253 -12 213 -12 q 136 -12 83 46 q 31 104 31 190 q 31 275 83 333 q 136 390 214 390 q 257 390 289 371 q 320 353 337 316 l 337 637 l 272 637 l 272 657 l 288 657 q 319 657 351 660 q 382 662 415 667 z"},"1":{"x_min":0,"x_max":500,"ha":500,"o":"m 88 0 l 88 25 l 215 25 l 215 563 q 215 586 200 596 q 185 606 148 606 l 87 606 l 87 627 l 297 635 l 297 25 l 412 25 l 412 0 z"},"5":{"x_min":0,"x_max":500,"ha":500,"o":"m 91 333 l 107 586 q 108 607 119 615 q 130 624 155 624 l 348 624 q 365 624 376 630 q 386 636 393 649 l 409 649 l 410 636 l 410 632 q 410 590 382 571 q 354 551 296 551 l 128 551 l 117 363 q 149 376 181 383 q 212 390 246 390 q 339 390 402 334 q 465 278 465 196 q 465 106 396 46 q 327 -14 222 -14 q 150 -14 97 23 q 44 60 44 106 q 44 134 59 152 q 75 170 99 170 q 123 170 137 156 q 152 143 152 120 q 152 104 146 94 q 140 83 127 77 q 123 75 114 73 q 99 70 99 62 q 99 47 136 29 q 173 10 215 10 q 286 10 326 55 q 365 101 365 183 q 365 266 321 312 q 277 359 199 359 q 175 359 151 352 q 127 346 106 333 z"}}}
